<?xml version="1.0"?>
<score-partwise version="3.1">
	<work>
		<work-title>pool</work-title>
	</work>
	<identification>
		<creator type="composer">LDAida</creator>
		<encoding>
			<encoding-date>2021-09-26</encoding-date>
			<software>Aida</software>
		</encoding>
	</identification>
	<defaults>
		<scaling>
			<millimeters>7.000000</millimeters>
			<tenths>40</tenths>
		</scaling>
	</defaults>
	<part-list>
		<score-part id="P1">
			<part-name>Soprano</part-name>
		</score-part>
		<score-part id="P2">
			<part-name>Bass</part-name>
		</score-part>
	</part-list>
	<part id="P1">
		<measure number="1">
			<attributes>
				<divisions>20</divisions>
				<key>
					<fifths>0</fifths>
				</key>
				<time>
					<beats>4</beats>
					<beat-type>4</beat-type>
				</time>
				<clef>
					<sign>G</sign>
					<line>2</line>
				</clef>
			</attributes>
			<note>
				<rest />
				<duration>40</duration>
				<type>half</type>
				<notations />
				<lyric number="1">
					<syllabic>single</syllabic>
					<text>myself=0</text>
				</lyric>
			</note>
			<note>
				<rest />
				<duration>20</duration>
				<type>quarter</type>
				<notations />
			</note>
			<note>
				<pitch>
					<step>G</step>
					<octave>4</octave>
				</pitch>
				<duration>20</duration>
				<type>quarter</type>
				<notations />
				<lyric number="0">
					<syllabic>single</syllabic>
					<text>MelName:myself&gt;1</text>
				</lyric>
			</note>
		</measure>
		<measure number="2">
			<note>
				<pitch>
					<step>E</step>
					<octave>5</octave>
				</pitch>
				<duration>40</duration>
				<type>half</type>
				<notations />
			</note>
			<note>
				<pitch>
					<step>D</step>
					<octave>5</octave>
				</pitch>
				<duration>15</duration>
				<type>eighth</type>
				<dot />
				<notations />
			</note>
			<note>
				<pitch>
					<step>E</step>
					<octave>5</octave>
				</pitch>
				<duration>15</duration>
				<type>eighth</type>
				<dot />
				<notations />
			</note>
			<note>
				<pitch>
					<step>G</step>
					<octave>5</octave>
				</pitch>
				<duration>10</duration>
				<type>eighth</type>
				<notations />
			</note>
		</measure>
		<measure number="3">
			<note>
				<pitch>
					<step>C</step>
					<octave>5</octave>
				</pitch>
				<duration>40</duration>
				<type>half</type>
				<notations />
			</note>
			<note>
				<pitch>
					<step>B</step>
					<octave>4</octave>
				</pitch>
				<duration>20</duration>
				<type>quarter</type>
				<notations />
			</note>
			<note>
				<pitch>
					<step>A</step>
					<octave>4</octave>
				</pitch>
				<duration>20</duration>
				<type>quarter</type>
				<notations />
			</note>
		</measure>
		<measure number="4">
			<note>
				<pitch>
					<step>F</step>
					<octave>5</octave>
				</pitch>
				<duration>40</duration>
				<type>half</type>
				<notations />
			</note>
			<note>
				<pitch>
					<step>E</step>
					<octave>5</octave>
				</pitch>
				<duration>15</duration>
				<type>eighth</type>
				<dot />
				<notations />
			</note>
			<note>
				<pitch>
					<step>F</step>
					<octave>5</octave>
				</pitch>
				<duration>15</duration>
				<type>eighth</type>
				<dot />
				<notations />
			</note>
			<note>
				<pitch>
					<step>G</step>
					<octave>5</octave>
				</pitch>
				<duration>5</duration>
				<type>16th</type>
				<notations />
			</note>
			<note>
				<pitch>
					<step>F</step>
					<octave>5</octave>
				</pitch>
				<duration>5</duration>
				<type>16th</type>
				<notations />
			</note>
		</measure>
		<measure number="5">
			<note>
				<pitch>
					<step>F</step>
					<octave>5</octave>
				</pitch>
				<duration>40</duration>
				<type>half</type>
				<notations />
			</note>
			<note>
				<pitch>
					<step>B</step>
					<octave>4</octave>
				</pitch>
				<duration>20</duration>
				<type>quarter</type>
				<notations />
			</note>
			<note>
				<pitch>
					<step>B</step>
					<octave>4</octave>
				</pitch>
				<duration>4</duration>
				<type>16th</type>
				<time-modification>
					<actual-notes>5</actual-notes>
					<normal-notes>4</normal-notes>
				</time-modification>
				<notations>
					<tuplet type="start" />
				</notations>
			</note>
			<note>
				<pitch>
					<step>C</step>
					<octave>5</octave>
				</pitch>
				<duration>4</duration>
				<type>16th</type>
				<time-modification>
					<actual-notes>5</actual-notes>
					<normal-notes>4</normal-notes>
				</time-modification>
				<notations />
			</note>
			<note>
				<pitch>
					<step>D</step>
					<octave>5</octave>
				</pitch>
				<duration>4</duration>
				<type>16th</type>
				<time-modification>
					<actual-notes>5</actual-notes>
					<normal-notes>4</normal-notes>
				</time-modification>
				<notations />
			</note>
			<note>
				<pitch>
					<step>E</step>
					<octave>5</octave>
				</pitch>
				<duration>4</duration>
				<type>16th</type>
				<time-modification>
					<actual-notes>5</actual-notes>
					<normal-notes>4</normal-notes>
				</time-modification>
				<notations />
			</note>
			<note>
				<pitch>
					<step>F</step>
					<octave>5</octave>
				</pitch>
				<duration>4</duration>
				<type>16th</type>
				<time-modification>
					<actual-notes>5</actual-notes>
					<normal-notes>4</normal-notes>
				</time-modification>
				<notations>
					<tuplet type="stop" />
				</notations>
			</note>
		</measure>
		<measure number="6">
			<note>
				<pitch>
					<step>G</step>
					<octave>5</octave>
				</pitch>
				<duration>40</duration>
				<type>half</type>
				<notations />
			</note>
			<note>
				<pitch>
					<step>G</step>
					<alter>1</alter>
					<octave>5</octave>
				</pitch>
				<duration>20</duration>
				<type>quarter</type>
				<accidental>sharp</accidental>
				<notations />
			</note>
			<note>
				<pitch>
					<step>A</step>
					<octave>5</octave>
				</pitch>
				<duration>20</duration>
				<type>quarter</type>
				<notations />
			</note>
		</measure>
		<measure number="7">
			<note>
				<pitch>
					<step>C</step>
					<octave>6</octave>
				</pitch>
				<duration>40</duration>
				<type>half</type>
				<notations />
			</note>
			<note>
				<rest />
				<duration>10</duration>
				<type>eighth</type>
				<notations />
			</note>
			<note>
				<pitch>
					<step>F</step>
					<alter>1</alter>
					<octave>5</octave>
				</pitch>
				<duration>10</duration>
				<type>eighth</type>
				<accidental>sharp</accidental>
				<notations />
			</note>
			<note>
				<pitch>
					<step>D</step>
					<octave>6</octave>
				</pitch>
				<duration>10</duration>
				<type>eighth</type>
				<notations />
			</note>
			<note>
				<pitch>
					<step>C</step>
					<octave>6</octave>
				</pitch>
				<duration>10</duration>
				<type>eighth</type>
				<notations />
			</note>
		</measure>
		<measure number="8">
			<note>
				<pitch>
					<step>A</step>
					<octave>5</octave>
				</pitch>
				<duration>10</duration>
				<type>eighth</type>
				<notations />
			</note>
			<note>
				<pitch>
					<step>G</step>
					<alter>1</alter>
					<octave>5</octave>
				</pitch>
				<duration>10</duration>
				<type>eighth</type>
				<accidental>sharp</accidental>
				<notations />
			</note>
			<note>
				<pitch>
					<step>G</step>
					<octave>5</octave>
				</pitch>
				<duration>10</duration>
				<type>eighth</type>
				<notations />
			</note>
			<note>
				<pitch>
					<step>G</step>
					<octave>4</octave>
				</pitch>
				<duration>10</duration>
				<type>eighth</type>
				<notations />
			</note>
			<note>
				<pitch>
					<step>D</step>
					<octave>5</octave>
				</pitch>
				<duration>20</duration>
				<type>quarter</type>
				<notations />
			</note>
			<note>
				<pitch>
					<step>D</step>
					<alter>1</alter>
					<octave>5</octave>
				</pitch>
				<duration>20</duration>
				<type>quarter</type>
				<accidental>sharp</accidental>
				<notations />
			</note>
		</measure>
		<measure number="9">
			<note>
				<pitch>
					<step>D</step>
					<alter>1</alter>
					<octave>5</octave>
				</pitch>
				<duration>40</duration>
				<type>half</type>
				<accidental>sharp</accidental>
				<notations />
			</note>
			<note>
				<pitch>
					<step>E</step>
					<octave>5</octave>
				</pitch>
				<duration>40</duration>
				<type>half</type>
				<notations />
			</note>
		</measure>
		<measure number="10">
			<note>
				<rest />
				<duration>80</duration>
				<type>whole</type>
				<notations />
			</note>
		</measure>
	</part>
	<part id="P2">
		<measure number="1">
			<attributes>
				<divisions>20</divisions>
				<key>
					<fifths>0</fifths>
				</key>
				<time>
					<beats>4</beats>
					<beat-type>4</beat-type>
				</time>
				<clef>
					<sign>F</sign>
					<line>4</line>
				</clef>
			</attributes>
			<note>
				<rest />
				<duration>80</duration>
				<type>whole</type>
				<notations />
			</note>
		</measure>
		<measure number="2">
			<note>
				<pitch>
					<step>G</step>
					<octave>2</octave>
				</pitch>
				<duration>40</duration>
				<type>half</type>
				<notations />
			</note>
			<note>
				<chord />
				<pitch>
					<step>C</step>
					<alter>1</alter>
					<octave>3</octave>
				</pitch>
				<duration>40</duration>
				<type>half</type>
				<accidental>sharp</accidental>
				<notations />
			</note>
			<note>
				<chord />
				<pitch>
					<step>E</step>
					<octave>3</octave>
				</pitch>
				<duration>40</duration>
				<type>half</type>
				<notations />
			</note>
			<note>
				<pitch>
					<step>G</step>
					<alter>-1</alter>
					<octave>2</octave>
				</pitch>
				<duration>40</duration>
				<type>half</type>
				<accidental>flat</accidental>
				<notations />
			</note>
			<note>
				<chord />
				<pitch>
					<step>B</step>
					<octave>2</octave>
				</pitch>
				<duration>40</duration>
				<type>half</type>
				<notations />
			</note>
			<note>
				<chord />
				<pitch>
					<step>D</step>
					<alter>1</alter>
					<octave>3</octave>
				</pitch>
				<duration>40</duration>
				<type>half</type>
				<accidental>sharp</accidental>
				<notations />
			</note>
		</measure>
		<measure number="3">
			<note>
				<pitch>
					<step>A</step>
					<octave>2</octave>
				</pitch>
				<duration>40</duration>
				<type>half</type>
				<notations />
			</note>
			<note>
				<chord />
				<pitch>
					<step>C</step>
					<octave>3</octave>
				</pitch>
				<duration>40</duration>
				<type>half</type>
				<notations />
			</note>
			<note>
				<chord />
				<pitch>
					<step>E</step>
					<octave>3</octave>
				</pitch>
				<duration>40</duration>
				<type>half</type>
				<notations />
			</note>
			<note>
				<pitch>
					<step>A</step>
					<octave>2</octave>
				</pitch>
				<duration>20</duration>
				<type>quarter</type>
				<notations />
			</note>
			<note>
				<pitch>
					<step>G</step>
					<octave>2</octave>
				</pitch>
				<duration>20</duration>
				<type>quarter</type>
				<notations />
			</note>
		</measure>
		<measure number="4">
			<note>
				<pitch>
					<step>F</step>
					<octave>2</octave>
				</pitch>
				<duration>40</duration>
				<type>half</type>
				<notations />
			</note>
			<note>
				<chord />
				<pitch>
					<step>A</step>
					<octave>2</octave>
				</pitch>
				<duration>40</duration>
				<type>half</type>
				<notations />
			</note>
			<note>
				<chord />
				<pitch>
					<step>C</step>
					<octave>3</octave>
				</pitch>
				<duration>40</duration>
				<type>half</type>
				<notations />
			</note>
			<note>
				<pitch>
					<step>A</step>
					<octave>2</octave>
				</pitch>
				<duration>40</duration>
				<type>half</type>
				<notations />
			</note>
			<note>
				<chord />
				<pitch>
					<step>C</step>
					<octave>3</octave>
				</pitch>
				<duration>40</duration>
				<type>half</type>
				<notations />
			</note>
			<note>
				<chord />
				<pitch>
					<step>F</step>
					<octave>3</octave>
				</pitch>
				<duration>40</duration>
				<type>half</type>
				<notations />
			</note>
		</measure>
		<measure number="5">
			<note>
				<pitch>
					<step>B</step>
					<octave>2</octave>
				</pitch>
				<duration>40</duration>
				<type>half</type>
				<notations />
			</note>
			<note>
				<chord />
				<pitch>
					<step>D</step>
					<octave>3</octave>
				</pitch>
				<duration>40</duration>
				<type>half</type>
				<notations />
			</note>
			<note>
				<chord />
				<pitch>
					<step>F</step>
					<octave>3</octave>
				</pitch>
				<duration>40</duration>
				<type>half</type>
				<notations />
			</note>
			<note>
				<pitch>
					<step>E</step>
					<octave>3</octave>
				</pitch>
				<duration>20</duration>
				<type>quarter</type>
				<notations />
			</note>
			<note>
				<chord />
				<pitch>
					<step>G</step>
					<octave>3</octave>
				</pitch>
				<duration>20</duration>
				<type>quarter</type>
				<notations />
			</note>
			<note>
				<pitch>
					<step>D</step>
					<octave>3</octave>
				</pitch>
				<duration>20</duration>
				<type>quarter</type>
				<notations />
			</note>
			<note>
				<chord />
				<pitch>
					<step>F</step>
					<octave>3</octave>
				</pitch>
				<duration>20</duration>
				<type>quarter</type>
				<notations />
			</note>
		</measure>
		<measure number="6">
			<note>
				<pitch>
					<step>C</step>
					<alter>1</alter>
					<octave>3</octave>
				</pitch>
				<duration>40</duration>
				<type>half</type>
				<accidental>sharp</accidental>
				<notations />
			</note>
			<note>
				<chord />
				<pitch>
					<step>E</step>
					<octave>3</octave>
				</pitch>
				<duration>40</duration>
				<type>half</type>
				<notations />
			</note>
			<note>
				<chord />
				<pitch>
					<step>G</step>
					<octave>3</octave>
				</pitch>
				<duration>40</duration>
				<type>half</type>
				<notations />
			</note>
			<note>
				<rest />
				<duration>40</duration>
				<type>half</type>
				<notations />
			</note>
		</measure>
		<measure number="7">
			<note>
				<pitch>
					<step>C</step>
					<octave>3</octave>
				</pitch>
				<duration>20</duration>
				<type>quarter</type>
				<notations />
			</note>
			<note>
				<chord />
				<pitch>
					<step>A</step>
					<octave>3</octave>
				</pitch>
				<duration>20</duration>
				<type>quarter</type>
				<notations />
			</note>
			<note>
				<pitch>
					<step>A</step>
					<octave>2</octave>
				</pitch>
				<duration>20</duration>
				<type>quarter</type>
				<notations />
			</note>
			<note>
				<chord />
				<pitch>
					<step>C</step>
					<octave>4</octave>
				</pitch>
				<duration>20</duration>
				<type>quarter</type>
				<notations />
			</note>
			<note>
				<pitch>
					<step>F</step>
					<alter>1</alter>
					<octave>2</octave>
				</pitch>
				<duration>40</duration>
				<type>half</type>
				<accidental>sharp</accidental>
				<notations />
			</note>
			<note>
				<chord />
				<pitch>
					<step>E</step>
					<octave>4</octave>
				</pitch>
				<duration>40</duration>
				<type>half</type>
				<notations />
			</note>
		</measure>
		<measure number="8">
			<note>
				<rest />
				<duration>80</duration>
				<type>whole</type>
				<notations />
			</note>
		</measure>
		<measure number="9">
			<note>
				<rest />
				<duration>80</duration>
				<type>whole</type>
				<notations />
			</note>
		</measure>
		<measure number="10">
			<note>
				<rest />
				<duration>80</duration>
				<type>whole</type>
				<notations />
			</note>
		</measure>
	</part>
</score-partwise>
