<?xml version="1.0"?>
<score-partwise version="3.1">
	<work>
		<work-title>pool</work-title>
	</work>
	<identification>
		<creator type="composer">LDAida</creator>
		<encoding>
			<encoding-date>2021-09-26</encoding-date>
			<software>Aida</software>
		</encoding>
	</identification>
	<defaults>
		<scaling>
			<millimeters>7.000000</millimeters>
			<tenths>40</tenths>
		</scaling>
	</defaults>
	<part-list>
		<score-part id="P1">
			<part-name>Soprano</part-name>
		</score-part>
		<score-part id="P2">
			<part-name>Bass</part-name>
		</score-part>
	</part-list>
	<part id="P1">
		<measure number="1">
			<attributes>
				<divisions>12</divisions>
				<key>
					<fifths>0</fifths>
				</key>
				<time>
					<beats>4</beats>
					<beat-type>4</beat-type>
				</time>
				<clef>
					<sign>G</sign>
					<line>2</line>
				</clef>
			</attributes>
			<note>
				<pitch>
					<step>G</step>
					<octave>4</octave>
				</pitch>
				<duration>6</duration>
				<type>eighth</type>
				<notations />
				<lyric number="0">
					<syllabic>single</syllabic>
					<text>MelID:mozart&gt;symps&gt;no1&gt;0</text>
				</lyric>
				<lyric number="1">
					<syllabic>single</syllabic>
					<text>MelName:mozart&gt;symps&gt;no1&gt;1</text>
				</lyric>
			</note>
			<note>
				<pitch>
					<step>F</step>
					<alter>1</alter>
					<octave>4</octave>
				</pitch>
				<duration>6</duration>
				<type>eighth</type>
				<accidental>sharp</accidental>
				<notations />
			</note>
			<note>
				<pitch>
					<step>G</step>
					<octave>4</octave>
				</pitch>
				<duration>6</duration>
				<type>eighth</type>
				<notations />
			</note>
			<note>
				<pitch>
					<step>A</step>
					<octave>4</octave>
				</pitch>
				<duration>6</duration>
				<type>eighth</type>
				<notations />
			</note>
			<note>
				<pitch>
					<step>G</step>
					<octave>4</octave>
				</pitch>
				<duration>6</duration>
				<type>eighth</type>
				<notations />
			</note>
			<note>
				<pitch>
					<step>F</step>
					<octave>4</octave>
				</pitch>
				<duration>6</duration>
				<type>eighth</type>
				<notations />
			</note>
			<note>
				<pitch>
					<step>E</step>
					<octave>4</octave>
				</pitch>
				<duration>6</duration>
				<type>eighth</type>
				<notations />
			</note>
			<note>
				<pitch>
					<step>D</step>
					<alter>1</alter>
					<octave>4</octave>
				</pitch>
				<duration>6</duration>
				<type>eighth</type>
				<accidental>sharp</accidental>
				<notations />
			</note>
		</measure>
		<measure number="2">
			<note>
				<pitch>
					<step>E</step>
					<octave>4</octave>
				</pitch>
				<duration>6</duration>
				<type>eighth</type>
				<notations />
			</note>
			<note>
				<pitch>
					<step>F</step>
					<octave>4</octave>
				</pitch>
				<duration>6</duration>
				<type>eighth</type>
				<notations />
			</note>
			<note>
				<pitch>
					<step>E</step>
					<octave>4</octave>
				</pitch>
				<duration>6</duration>
				<type>eighth</type>
				<notations />
			</note>
			<note>
				<pitch>
					<step>D</step>
					<octave>4</octave>
				</pitch>
				<duration>6</duration>
				<type>eighth</type>
				<notations />
			</note>
			<note>
				<pitch>
					<step>C</step>
					<octave>4</octave>
				</pitch>
				<duration>6</duration>
				<type>eighth</type>
				<notations />
			</note>
			<note>
				<pitch>
					<step>E</step>
					<octave>4</octave>
				</pitch>
				<duration>6</duration>
				<type>eighth</type>
				<notations />
			</note>
			<note>
				<pitch>
					<step>G</step>
					<octave>4</octave>
				</pitch>
				<duration>12</duration>
				<type>quarter</type>
				<notations />
			</note>
		</measure>
		<measure number="3">
			<note>
				<pitch>
					<step>A</step>
					<octave>4</octave>
				</pitch>
				<duration>12</duration>
				<type>quarter</type>
				<notations />
			</note>
			<note>
				<pitch>
					<step>A</step>
					<octave>4</octave>
				</pitch>
				<duration>36</duration>
				<type>half</type>
				<dot />
				<notations />
			</note>
		</measure>
		<measure number="4">
			<note>
				<rest />
				<duration>48</duration>
				<type>whole</type>
				<notations />
			</note>
		</measure>
		<measure number="5">
			<note>
				<pitch>
					<step>A</step>
					<octave>4</octave>
				</pitch>
				<duration>9</duration>
				<type>eighth</type>
				<dot />
				<notations />
				<lyric number="0">
					<syllabic>single</syllabic>
					<text>MelName:mozart&gt;symps&gt;no1&gt;2</text>
				</lyric>
			</note>
			<note>
				<pitch>
					<step>A</step>
					<octave>4</octave>
				</pitch>
				<duration>3</duration>
				<type>16th</type>
				<notations />
			</note>
			<note>
				<pitch>
					<step>A</step>
					<octave>4</octave>
				</pitch>
				<duration>3</duration>
				<type>16th</type>
				<notations />
			</note>
			<note>
				<pitch>
					<step>C</step>
					<octave>5</octave>
				</pitch>
				<duration>3</duration>
				<type>16th</type>
				<notations />
			</note>
			<note>
				<pitch>
					<step>B</step>
					<octave>4</octave>
				</pitch>
				<duration>3</duration>
				<type>16th</type>
				<notations />
			</note>
			<note>
				<pitch>
					<step>A</step>
					<octave>4</octave>
				</pitch>
				<duration>3</duration>
				<type>16th</type>
				<notations />
			</note>
			<note>
				<pitch>
					<step>E</step>
					<octave>5</octave>
				</pitch>
				<duration>9</duration>
				<type>eighth</type>
				<dot />
				<notations />
			</note>
			<note>
				<pitch>
					<step>E</step>
					<octave>4</octave>
				</pitch>
				<duration>3</duration>
				<type>16th</type>
				<notations />
			</note>
			<note>
				<pitch>
					<step>E</step>
					<octave>4</octave>
				</pitch>
				<duration>3</duration>
				<type>16th</type>
				<notations />
			</note>
			<note>
				<pitch>
					<step>G</step>
					<alter>1</alter>
					<octave>4</octave>
				</pitch>
				<duration>3</duration>
				<type>16th</type>
				<accidental>sharp</accidental>
				<notations />
			</note>
			<note>
				<pitch>
					<step>F</step>
					<alter>1</alter>
					<octave>4</octave>
				</pitch>
				<duration>3</duration>
				<type>16th</type>
				<accidental>sharp</accidental>
				<notations />
			</note>
			<note>
				<pitch>
					<step>E</step>
					<octave>4</octave>
				</pitch>
				<duration>3</duration>
				<type>16th</type>
				<notations />
			</note>
		</measure>
		<measure number="6">
			<note>
				<pitch>
					<step>A</step>
					<octave>4</octave>
				</pitch>
				<duration>9</duration>
				<type>eighth</type>
				<dot />
				<notations />
			</note>
			<note>
				<pitch>
					<step>A</step>
					<octave>4</octave>
				</pitch>
				<duration>3</duration>
				<type>16th</type>
				<notations />
			</note>
			<note>
				<pitch>
					<step>A</step>
					<octave>4</octave>
				</pitch>
				<duration>3</duration>
				<type>16th</type>
				<notations />
			</note>
			<note>
				<pitch>
					<step>C</step>
					<octave>5</octave>
				</pitch>
				<duration>3</duration>
				<type>16th</type>
				<notations />
			</note>
			<note>
				<pitch>
					<step>B</step>
					<octave>4</octave>
				</pitch>
				<duration>3</duration>
				<type>16th</type>
				<notations />
			</note>
			<note>
				<pitch>
					<step>A</step>
					<octave>4</octave>
				</pitch>
				<duration>3</duration>
				<type>16th</type>
				<notations />
			</note>
			<note>
				<pitch>
					<step>E</step>
					<octave>5</octave>
				</pitch>
				<duration>12</duration>
				<type>quarter</type>
				<notations />
			</note>
			<note>
				<pitch>
					<step>E</step>
					<octave>4</octave>
				</pitch>
				<duration>12</duration>
				<type>quarter</type>
				<notations />
			</note>
		</measure>
		<measure number="7">
			<note>
				<rest />
				<duration>48</duration>
				<type>whole</type>
				<notations />
			</note>
		</measure>
		<measure number="8">
			<note>
				<rest />
				<duration>12</duration>
				<type>quarter</type>
				<notations />
			</note>
			<note>
				<rest />
				<duration>12</duration>
				<type>quarter</type>
				<notations />
			</note>
			<note>
				<rest />
				<duration>6</duration>
				<type>eighth</type>
				<notations />
			</note>
			<note>
				<pitch>
					<step>G</step>
					<octave>4</octave>
				</pitch>
				<duration>6</duration>
				<type>eighth</type>
				<notations />
				<lyric number="0">
					<syllabic>single</syllabic>
					<text>MelName:mozart&gt;symps&gt;no1&gt;3</text>
				</lyric>
			</note>
			<note>
				<pitch>
					<step>E</step>
					<octave>4</octave>
				</pitch>
				<duration>6</duration>
				<type>eighth</type>
				<notations />
			</note>
			<note>
				<pitch>
					<step>D</step>
					<octave>4</octave>
				</pitch>
				<duration>6</duration>
				<type>eighth</type>
				<notations />
			</note>
		</measure>
		<measure number="9">
			<note>
				<pitch>
					<step>C</step>
					<octave>4</octave>
				</pitch>
				<duration>12</duration>
				<type>quarter</type>
				<notations />
			</note>
			<note>
				<pitch>
					<step>E</step>
					<octave>5</octave>
				</pitch>
				<duration>18</duration>
				<type>quarter</type>
				<dot />
				<notations />
			</note>
			<note>
				<pitch>
					<step>D</step>
					<octave>5</octave>
				</pitch>
				<duration>6</duration>
				<type>eighth</type>
				<notations />
			</note>
			<note>
				<pitch>
					<step>F</step>
					<octave>5</octave>
				</pitch>
				<duration>12</duration>
				<tie type="start" />
				<type>quarter</type>
				<notations>
					<tied type="start" />
				</notations>
			</note>
		</measure>
		<measure number="10">
			<note>
				<pitch>
					<step>F</step>
					<octave>5</octave>
				</pitch>
				<duration>6</duration>
				<tie type="stop" />
				<type>eighth</type>
				<notations>
					<tied type="stop" />
				</notations>
			</note>
			<note>
				<pitch>
					<step>E</step>
					<octave>5</octave>
				</pitch>
				<duration>6</duration>
				<type>eighth</type>
				<notations />
			</note>
			<note>
				<pitch>
					<step>B</step>
					<octave>4</octave>
				</pitch>
				<duration>6</duration>
				<type>eighth</type>
				<notations />
			</note>
			<note>
				<pitch>
					<step>C</step>
					<octave>5</octave>
				</pitch>
				<duration>6</duration>
				<type>eighth</type>
				<notations />
			</note>
			<note>
				<pitch>
					<step>A</step>
					<octave>4</octave>
				</pitch>
				<duration>12</duration>
				<type>quarter</type>
				<notations />
			</note>
			<note>
				<pitch>
					<step>D</step>
					<octave>5</octave>
				</pitch>
				<duration>12</duration>
				<tie type="start" />
				<type>quarter</type>
				<notations>
					<tied type="start" />
				</notations>
			</note>
		</measure>
		<measure number="11">
			<note>
				<pitch>
					<step>D</step>
					<octave>5</octave>
				</pitch>
				<duration>6</duration>
				<tie type="stop" />
				<type>eighth</type>
				<notations>
					<tied type="stop" />
				</notations>
			</note>
			<note>
				<pitch>
					<step>E</step>
					<octave>5</octave>
				</pitch>
				<duration>6</duration>
				<type>eighth</type>
				<notations />
			</note>
			<note>
				<pitch>
					<step>A</step>
					<octave>4</octave>
				</pitch>
				<duration>18</duration>
				<type>quarter</type>
				<dot />
				<notations />
			</note>
			<note>
				<pitch>
					<step>D</step>
					<octave>5</octave>
				</pitch>
				<duration>6</duration>
				<type>eighth</type>
				<notations />
			</note>
			<note>
				<pitch>
					<step>B</step>
					<octave>4</octave>
				</pitch>
				<duration>6</duration>
				<type>eighth</type>
				<notations />
			</note>
			<note>
				<pitch>
					<step>A</step>
					<octave>4</octave>
				</pitch>
				<duration>6</duration>
				<type>eighth</type>
				<notations />
			</note>
		</measure>
		<measure number="12">
			<note>
				<pitch>
					<step>G</step>
					<octave>4</octave>
				</pitch>
				<duration>12</duration>
				<type>quarter</type>
				<notations />
			</note>
			<note>
				<pitch>
					<step>D</step>
					<octave>5</octave>
				</pitch>
				<duration>18</duration>
				<type>quarter</type>
				<dot />
				<notations />
			</note>
			<note>
				<pitch>
					<step>E</step>
					<octave>5</octave>
				</pitch>
				<duration>6</duration>
				<type>eighth</type>
				<notations />
			</note>
			<note>
				<pitch>
					<step>G</step>
					<octave>5</octave>
				</pitch>
				<duration>12</duration>
				<tie type="start" />
				<type>quarter</type>
				<notations>
					<tied type="start" />
				</notations>
			</note>
		</measure>
		<measure number="13">
			<note>
				<pitch>
					<step>G</step>
					<octave>5</octave>
				</pitch>
				<duration>6</duration>
				<tie type="stop" />
				<type>eighth</type>
				<notations>
					<tied type="stop" />
				</notations>
			</note>
			<note>
				<pitch>
					<step>D</step>
					<octave>5</octave>
				</pitch>
				<duration>6</duration>
				<type>eighth</type>
				<notations />
			</note>
			<note>
				<pitch>
					<step>D</step>
					<octave>5</octave>
				</pitch>
				<duration>6</duration>
				<type>eighth</type>
				<notations />
			</note>
			<note>
				<pitch>
					<step>E</step>
					<octave>5</octave>
				</pitch>
				<duration>6</duration>
				<type>eighth</type>
				<notations />
			</note>
			<note>
				<pitch>
					<step>G</step>
					<octave>5</octave>
				</pitch>
				<duration>18</duration>
				<type>quarter</type>
				<dot />
				<notations />
			</note>
			<note>
				<pitch>
					<step>E</step>
					<octave>5</octave>
				</pitch>
				<duration>6</duration>
				<type>eighth</type>
				<notations />
			</note>
		</measure>
		<measure number="14">
			<note>
				<pitch>
					<step>A</step>
					<octave>5</octave>
				</pitch>
				<duration>6</duration>
				<type>eighth</type>
				<notations />
			</note>
			<note>
				<pitch>
					<step>G</step>
					<octave>5</octave>
				</pitch>
				<duration>6</duration>
				<type>eighth</type>
				<notations />
			</note>
			<note>
				<pitch>
					<step>D</step>
					<octave>5</octave>
				</pitch>
				<duration>12</duration>
				<tie type="start" />
				<type>quarter</type>
				<notations>
					<tied type="start" />
				</notations>
			</note>
			<note>
				<pitch>
					<step>D</step>
					<octave>5</octave>
				</pitch>
				<duration>4</duration>
				<tie type="stop" />
				<type>eighth</type>
				<time-modification>
					<actual-notes>3</actual-notes>
					<normal-notes>2</normal-notes>
				</time-modification>
				<notations>
					<tied type="stop" />
					<tuplet type="start" />
				</notations>
			</note>
			<note>
				<pitch>
					<step>B</step>
					<octave>4</octave>
				</pitch>
				<duration>4</duration>
				<type>eighth</type>
				<time-modification>
					<actual-notes>3</actual-notes>
					<normal-notes>2</normal-notes>
				</time-modification>
				<notations />
			</note>
			<note>
				<pitch>
					<step>A</step>
					<octave>4</octave>
				</pitch>
				<duration>4</duration>
				<type>eighth</type>
				<time-modification>
					<actual-notes>3</actual-notes>
					<normal-notes>2</normal-notes>
				</time-modification>
				<notations>
					<tuplet type="stop" />
				</notations>
			</note>
			<note>
				<pitch>
					<step>G</step>
					<octave>4</octave>
				</pitch>
				<duration>4</duration>
				<type>eighth</type>
				<time-modification>
					<actual-notes>3</actual-notes>
					<normal-notes>2</normal-notes>
				</time-modification>
				<notations>
					<tuplet type="start" />
				</notations>
			</note>
			<note>
				<pitch>
					<step>F</step>
					<octave>4</octave>
				</pitch>
				<duration>4</duration>
				<type>eighth</type>
				<time-modification>
					<actual-notes>3</actual-notes>
					<normal-notes>2</normal-notes>
				</time-modification>
				<notations />
			</note>
			<note>
				<pitch>
					<step>D</step>
					<octave>4</octave>
				</pitch>
				<duration>4</duration>
				<type>eighth</type>
				<time-modification>
					<actual-notes>3</actual-notes>
					<normal-notes>2</normal-notes>
				</time-modification>
				<notations>
					<tuplet type="stop" />
				</notations>
			</note>
		</measure>
		<measure number="15">
			<note>
				<pitch>
					<step>C</step>
					<octave>4</octave>
				</pitch>
				<duration>12</duration>
				<type>quarter</type>
				<notations />
			</note>
			<note>
				<rest />
				<duration>12</duration>
				<type>quarter</type>
				<notations />
			</note>
			<note>
				<rest />
				<duration>24</duration>
				<type>half</type>
				<notations />
			</note>
		</measure>
		<measure number="16">
			<note>
				<rest />
				<duration>48</duration>
				<type>whole</type>
				<notations />
			</note>
		</measure>
		<measure number="17">
			<note>
				<pitch>
					<step>C</step>
					<alter>1</alter>
					<octave>4</octave>
				</pitch>
				<duration>6</duration>
				<type>eighth</type>
				<accidental>sharp</accidental>
				<notations />
				<lyric number="0">
					<syllabic>single</syllabic>
					<text>MelName:mozart&gt;symps&gt;no1&gt;4</text>
				</lyric>
			</note>
			<note>
				<pitch>
					<step>E</step>
					<octave>4</octave>
				</pitch>
				<duration>6</duration>
				<type>eighth</type>
				<notations />
			</note>
			<note>
				<pitch>
					<step>G</step>
					<octave>4</octave>
				</pitch>
				<duration>6</duration>
				<type>eighth</type>
				<notations />
			</note>
			<note>
				<pitch>
					<step>C</step>
					<octave>5</octave>
				</pitch>
				<duration>6</duration>
				<type>eighth</type>
				<notations />
			</note>
			<note>
				<pitch>
					<step>E</step>
					<octave>5</octave>
				</pitch>
				<duration>6</duration>
				<type>eighth</type>
				<notations />
			</note>
			<note>
				<pitch>
					<step>G</step>
					<octave>4</octave>
				</pitch>
				<duration>6</duration>
				<type>eighth</type>
				<notations />
			</note>
			<note>
				<pitch>
					<step>C</step>
					<octave>5</octave>
				</pitch>
				<duration>6</duration>
				<type>eighth</type>
				<notations />
			</note>
			<note>
				<pitch>
					<step>E</step>
					<octave>5</octave>
				</pitch>
				<duration>6</duration>
				<type>eighth</type>
				<notations />
			</note>
		</measure>
		<measure number="18">
			<note>
				<pitch>
					<step>C</step>
					<octave>4</octave>
				</pitch>
				<duration>6</duration>
				<type>eighth</type>
				<notations />
			</note>
			<note>
				<pitch>
					<step>E</step>
					<octave>4</octave>
				</pitch>
				<duration>6</duration>
				<type>eighth</type>
				<notations />
			</note>
			<note>
				<pitch>
					<step>G</step>
					<octave>4</octave>
				</pitch>
				<duration>6</duration>
				<type>eighth</type>
				<notations />
			</note>
			<note>
				<pitch>
					<step>C</step>
					<octave>5</octave>
				</pitch>
				<duration>6</duration>
				<type>eighth</type>
				<notations />
			</note>
			<note>
				<pitch>
					<step>E</step>
					<octave>5</octave>
				</pitch>
				<duration>6</duration>
				<type>eighth</type>
				<notations />
			</note>
			<note>
				<pitch>
					<step>G</step>
					<octave>4</octave>
				</pitch>
				<duration>6</duration>
				<type>eighth</type>
				<notations />
			</note>
			<note>
				<pitch>
					<step>C</step>
					<octave>5</octave>
				</pitch>
				<duration>6</duration>
				<type>eighth</type>
				<notations />
			</note>
			<note>
				<pitch>
					<step>E</step>
					<octave>5</octave>
				</pitch>
				<duration>6</duration>
				<type>eighth</type>
				<notations />
			</note>
		</measure>
		<measure number="19">
			<note>
				<pitch>
					<step>C</step>
					<octave>4</octave>
				</pitch>
				<duration>6</duration>
				<type>eighth</type>
				<notations />
			</note>
			<note>
				<pitch>
					<step>D</step>
					<octave>4</octave>
				</pitch>
				<duration>6</duration>
				<type>eighth</type>
				<notations />
			</note>
			<note>
				<pitch>
					<step>A</step>
					<octave>4</octave>
				</pitch>
				<duration>6</duration>
				<type>eighth</type>
				<notations />
			</note>
			<note>
				<pitch>
					<step>D</step>
					<octave>5</octave>
				</pitch>
				<duration>6</duration>
				<type>eighth</type>
				<notations />
			</note>
			<note>
				<pitch>
					<step>F</step>
					<octave>5</octave>
				</pitch>
				<duration>6</duration>
				<type>eighth</type>
				<notations />
			</note>
			<note>
				<pitch>
					<step>A</step>
					<octave>4</octave>
				</pitch>
				<duration>6</duration>
				<type>eighth</type>
				<notations />
			</note>
			<note>
				<pitch>
					<step>D</step>
					<octave>5</octave>
				</pitch>
				<duration>6</duration>
				<type>eighth</type>
				<notations />
			</note>
			<note>
				<pitch>
					<step>F</step>
					<octave>5</octave>
				</pitch>
				<duration>6</duration>
				<type>eighth</type>
				<notations />
			</note>
		</measure>
		<measure number="20">
			<note>
				<pitch>
					<step>C</step>
					<octave>4</octave>
				</pitch>
				<duration>6</duration>
				<type>eighth</type>
				<notations />
			</note>
			<note>
				<pitch>
					<step>D</step>
					<octave>4</octave>
				</pitch>
				<duration>6</duration>
				<type>eighth</type>
				<notations />
			</note>
			<note>
				<pitch>
					<step>A</step>
					<octave>4</octave>
				</pitch>
				<duration>6</duration>
				<type>eighth</type>
				<notations />
			</note>
			<note>
				<pitch>
					<step>D</step>
					<octave>5</octave>
				</pitch>
				<duration>6</duration>
				<type>eighth</type>
				<notations />
			</note>
			<note>
				<pitch>
					<step>F</step>
					<octave>5</octave>
				</pitch>
				<duration>6</duration>
				<type>eighth</type>
				<notations />
			</note>
			<note>
				<pitch>
					<step>A</step>
					<octave>4</octave>
				</pitch>
				<duration>6</duration>
				<type>eighth</type>
				<notations />
			</note>
			<note>
				<pitch>
					<step>D</step>
					<octave>5</octave>
				</pitch>
				<duration>6</duration>
				<type>eighth</type>
				<notations />
			</note>
			<note>
				<pitch>
					<step>F</step>
					<octave>5</octave>
				</pitch>
				<duration>6</duration>
				<type>eighth</type>
				<notations />
			</note>
		</measure>
		<measure number="21">
			<note>
				<pitch>
					<step>B</step>
					<octave>3</octave>
				</pitch>
				<duration>6</duration>
				<type>eighth</type>
				<notations />
			</note>
			<note>
				<pitch>
					<step>D</step>
					<octave>4</octave>
				</pitch>
				<duration>6</duration>
				<type>eighth</type>
				<notations />
			</note>
			<note>
				<pitch>
					<step>G</step>
					<octave>4</octave>
				</pitch>
				<duration>6</duration>
				<type>eighth</type>
				<notations />
			</note>
			<note>
				<pitch>
					<step>D</step>
					<octave>5</octave>
				</pitch>
				<duration>6</duration>
				<type>eighth</type>
				<notations />
			</note>
			<note>
				<pitch>
					<step>F</step>
					<octave>5</octave>
				</pitch>
				<duration>6</duration>
				<type>eighth</type>
				<notations />
			</note>
			<note>
				<pitch>
					<step>G</step>
					<octave>4</octave>
				</pitch>
				<duration>6</duration>
				<type>eighth</type>
				<notations />
			</note>
			<note>
				<pitch>
					<step>D</step>
					<octave>5</octave>
				</pitch>
				<duration>6</duration>
				<type>eighth</type>
				<notations />
			</note>
			<note>
				<pitch>
					<step>F</step>
					<octave>5</octave>
				</pitch>
				<duration>6</duration>
				<type>eighth</type>
				<notations />
			</note>
		</measure>
		<measure number="22">
			<note>
				<pitch>
					<step>B</step>
					<octave>3</octave>
				</pitch>
				<duration>6</duration>
				<type>eighth</type>
				<notations />
			</note>
			<note>
				<pitch>
					<step>D</step>
					<octave>4</octave>
				</pitch>
				<duration>6</duration>
				<type>eighth</type>
				<notations />
			</note>
			<note>
				<pitch>
					<step>G</step>
					<octave>4</octave>
				</pitch>
				<duration>6</duration>
				<type>eighth</type>
				<notations />
			</note>
			<note>
				<pitch>
					<step>D</step>
					<octave>5</octave>
				</pitch>
				<duration>6</duration>
				<type>eighth</type>
				<notations />
			</note>
			<note>
				<pitch>
					<step>F</step>
					<octave>5</octave>
				</pitch>
				<duration>6</duration>
				<type>eighth</type>
				<notations />
			</note>
			<note>
				<pitch>
					<step>G</step>
					<octave>4</octave>
				</pitch>
				<duration>6</duration>
				<type>eighth</type>
				<notations />
			</note>
			<note>
				<pitch>
					<step>D</step>
					<octave>5</octave>
				</pitch>
				<duration>6</duration>
				<type>eighth</type>
				<notations />
			</note>
			<note>
				<pitch>
					<step>F</step>
					<octave>5</octave>
				</pitch>
				<duration>6</duration>
				<type>eighth</type>
				<notations />
			</note>
		</measure>
		<measure number="23">
			<note>
				<pitch>
					<step>C</step>
					<octave>4</octave>
				</pitch>
				<duration>6</duration>
				<type>eighth</type>
				<notations />
			</note>
			<note>
				<pitch>
					<step>E</step>
					<octave>4</octave>
				</pitch>
				<duration>6</duration>
				<type>eighth</type>
				<notations />
			</note>
			<note>
				<pitch>
					<step>G</step>
					<octave>4</octave>
				</pitch>
				<duration>6</duration>
				<type>eighth</type>
				<notations />
			</note>
			<note>
				<pitch>
					<step>C</step>
					<octave>5</octave>
				</pitch>
				<duration>6</duration>
				<type>eighth</type>
				<notations />
			</note>
			<note>
				<pitch>
					<step>E</step>
					<octave>5</octave>
				</pitch>
				<duration>6</duration>
				<type>eighth</type>
				<notations />
			</note>
			<note>
				<pitch>
					<step>G</step>
					<octave>4</octave>
				</pitch>
				<duration>6</duration>
				<type>eighth</type>
				<notations />
			</note>
			<note>
				<pitch>
					<step>C</step>
					<octave>5</octave>
				</pitch>
				<duration>6</duration>
				<type>eighth</type>
				<notations />
			</note>
			<note>
				<pitch>
					<step>E</step>
					<octave>5</octave>
				</pitch>
				<duration>6</duration>
				<type>eighth</type>
				<notations />
			</note>
		</measure>
		<measure number="24">
			<note>
				<pitch>
					<step>C</step>
					<octave>4</octave>
				</pitch>
				<duration>6</duration>
				<type>eighth</type>
				<notations />
			</note>
			<note>
				<pitch>
					<step>E</step>
					<octave>4</octave>
				</pitch>
				<duration>6</duration>
				<type>eighth</type>
				<notations />
			</note>
			<note>
				<pitch>
					<step>G</step>
					<octave>4</octave>
				</pitch>
				<duration>6</duration>
				<type>eighth</type>
				<notations />
			</note>
			<note>
				<pitch>
					<step>C</step>
					<octave>5</octave>
				</pitch>
				<duration>6</duration>
				<type>eighth</type>
				<notations />
			</note>
			<note>
				<pitch>
					<step>E</step>
					<octave>5</octave>
				</pitch>
				<duration>6</duration>
				<type>eighth</type>
				<notations />
			</note>
			<note>
				<pitch>
					<step>G</step>
					<octave>4</octave>
				</pitch>
				<duration>6</duration>
				<type>eighth</type>
				<notations />
			</note>
			<note>
				<pitch>
					<step>C</step>
					<octave>5</octave>
				</pitch>
				<duration>6</duration>
				<type>eighth</type>
				<notations />
			</note>
			<note>
				<pitch>
					<step>E</step>
					<octave>5</octave>
				</pitch>
				<duration>6</duration>
				<type>eighth</type>
				<notations />
			</note>
		</measure>
		<measure number="25">
			<note>
				<rest />
				<duration>48</duration>
				<type>whole</type>
				<notations />
			</note>
		</measure>
	</part>
	<part id="P2">
		<measure number="1">
			<attributes>
				<divisions>12</divisions>
				<key>
					<fifths>0</fifths>
				</key>
				<time>
					<beats>4</beats>
					<beat-type>4</beat-type>
				</time>
				<clef>
					<sign>F</sign>
					<line>4</line>
				</clef>
			</attributes>
			<note>
				<pitch>
					<step>C</step>
					<octave>3</octave>
				</pitch>
				<duration>36</duration>
				<type>half</type>
				<dot />
				<notations />
			</note>
			<note>
				<chord />
				<pitch>
					<step>E</step>
					<octave>3</octave>
				</pitch>
				<duration>36</duration>
				<type>half</type>
				<dot />
				<notations />
			</note>
			<note>
				<chord />
				<pitch>
					<step>G</step>
					<octave>3</octave>
				</pitch>
				<duration>36</duration>
				<type>half</type>
				<dot />
				<notations />
			</note>
			<note>
				<pitch>
					<step>E</step>
					<octave>3</octave>
				</pitch>
				<duration>12</duration>
				<tie type="start" />
				<type>quarter</type>
				<notations>
					<tied type="start" />
				</notations>
			</note>
			<note>
				<chord />
				<pitch>
					<step>G</step>
					<octave>3</octave>
				</pitch>
				<duration>12</duration>
				<tie type="start" />
				<type>quarter</type>
				<notations>
					<tied type="start" />
				</notations>
			</note>
			<note>
				<chord />
				<pitch>
					<step>C</step>
					<octave>4</octave>
				</pitch>
				<duration>12</duration>
				<tie type="start" />
				<type>quarter</type>
				<notations>
					<tied type="start" />
				</notations>
			</note>
		</measure>
		<measure number="2">
			<note>
				<pitch>
					<step>E</step>
					<octave>3</octave>
				</pitch>
				<duration>24</duration>
				<tie type="stop" />
				<type>half</type>
				<notations>
					<tied type="stop" />
				</notations>
			</note>
			<note>
				<chord />
				<pitch>
					<step>G</step>
					<octave>3</octave>
				</pitch>
				<duration>24</duration>
				<tie type="stop" />
				<type>half</type>
				<notations>
					<tied type="stop" />
				</notations>
			</note>
			<note>
				<chord />
				<pitch>
					<step>C</step>
					<octave>4</octave>
				</pitch>
				<duration>24</duration>
				<tie type="stop" />
				<type>half</type>
				<notations>
					<tied type="stop" />
				</notations>
			</note>
			<note>
				<pitch>
					<step>C</step>
					<octave>3</octave>
				</pitch>
				<duration>24</duration>
				<tie type="start" />
				<type>half</type>
				<notations>
					<tied type="start" />
				</notations>
			</note>
			<note>
				<chord />
				<pitch>
					<step>E</step>
					<octave>3</octave>
				</pitch>
				<duration>24</duration>
				<tie type="start" />
				<type>half</type>
				<notations>
					<tied type="start" />
				</notations>
			</note>
			<note>
				<chord />
				<pitch>
					<step>G</step>
					<octave>3</octave>
				</pitch>
				<duration>24</duration>
				<tie type="start" />
				<type>half</type>
				<notations>
					<tied type="start" />
				</notations>
			</note>
		</measure>
		<measure number="3">
			<note>
				<pitch>
					<step>C</step>
					<octave>3</octave>
				</pitch>
				<duration>12</duration>
				<tie type="stop" />
				<type>quarter</type>
				<notations>
					<tied type="stop" />
				</notations>
			</note>
			<note>
				<chord />
				<pitch>
					<step>E</step>
					<octave>3</octave>
				</pitch>
				<duration>12</duration>
				<tie type="stop" />
				<type>quarter</type>
				<notations>
					<tied type="stop" />
				</notations>
			</note>
			<note>
				<chord />
				<pitch>
					<step>G</step>
					<octave>3</octave>
				</pitch>
				<duration>12</duration>
				<tie type="stop" />
				<type>quarter</type>
				<notations>
					<tied type="stop" />
				</notations>
			</note>
			<note>
				<pitch>
					<step>C</step>
					<octave>3</octave>
				</pitch>
				<duration>36</duration>
				<type>half</type>
				<dot />
				<notations />
			</note>
			<note>
				<chord />
				<pitch>
					<step>F</step>
					<octave>3</octave>
				</pitch>
				<duration>36</duration>
				<type>half</type>
				<dot />
				<notations />
			</note>
			<note>
				<chord />
				<pitch>
					<step>A</step>
					<octave>3</octave>
				</pitch>
				<duration>36</duration>
				<type>half</type>
				<dot />
				<notations />
			</note>
		</measure>
		<measure number="4">
			<note>
				<rest />
				<duration>48</duration>
				<type>whole</type>
				<notations />
			</note>
		</measure>
		<measure number="5">
			<note>
				<pitch>
					<step>A</step>
					<octave>2</octave>
				</pitch>
				<duration>24</duration>
				<type>half</type>
				<notations />
			</note>
			<note>
				<chord />
				<pitch>
					<step>C</step>
					<octave>3</octave>
				</pitch>
				<duration>24</duration>
				<type>half</type>
				<notations />
			</note>
			<note>
				<chord />
				<pitch>
					<step>E</step>
					<octave>3</octave>
				</pitch>
				<duration>24</duration>
				<type>half</type>
				<notations />
			</note>
			<note>
				<pitch>
					<step>E</step>
					<octave>3</octave>
				</pitch>
				<duration>24</duration>
				<type>half</type>
				<notations />
			</note>
			<note>
				<chord />
				<pitch>
					<step>G</step>
					<alter>1</alter>
					<octave>3</octave>
				</pitch>
				<duration>24</duration>
				<type>half</type>
				<accidental>sharp</accidental>
				<notations />
			</note>
			<note>
				<chord />
				<pitch>
					<step>B</step>
					<octave>3</octave>
				</pitch>
				<duration>24</duration>
				<type>half</type>
				<notations />
			</note>
		</measure>
		<measure number="6">
			<note>
				<pitch>
					<step>A</step>
					<octave>2</octave>
				</pitch>
				<duration>24</duration>
				<type>half</type>
				<notations />
			</note>
			<note>
				<chord />
				<pitch>
					<step>C</step>
					<octave>3</octave>
				</pitch>
				<duration>24</duration>
				<type>half</type>
				<notations />
			</note>
			<note>
				<chord />
				<pitch>
					<step>E</step>
					<octave>3</octave>
				</pitch>
				<duration>24</duration>
				<type>half</type>
				<notations />
			</note>
			<note>
				<pitch>
					<step>E</step>
					<octave>3</octave>
				</pitch>
				<duration>24</duration>
				<type>half</type>
				<notations />
			</note>
			<note>
				<chord />
				<pitch>
					<step>G</step>
					<alter>1</alter>
					<octave>3</octave>
				</pitch>
				<duration>24</duration>
				<type>half</type>
				<accidental>sharp</accidental>
				<notations />
			</note>
			<note>
				<chord />
				<pitch>
					<step>B</step>
					<octave>3</octave>
				</pitch>
				<duration>24</duration>
				<type>half</type>
				<notations />
			</note>
		</measure>
		<measure number="7">
			<note>
				<rest />
				<duration>48</duration>
				<type>whole</type>
				<notations />
			</note>
		</measure>
		<measure number="8">
			<note>
				<rest />
				<duration>48</duration>
				<type>whole</type>
				<notations />
			</note>
		</measure>
		<measure number="9">
			<note>
				<pitch>
					<step>E</step>
					<octave>3</octave>
				</pitch>
				<duration>48</duration>
				<type>whole</type>
				<notations />
			</note>
			<note>
				<chord />
				<pitch>
					<step>G</step>
					<octave>3</octave>
				</pitch>
				<duration>48</duration>
				<type>whole</type>
				<notations />
			</note>
			<note>
				<chord />
				<pitch>
					<step>B</step>
					<octave>3</octave>
				</pitch>
				<duration>48</duration>
				<type>whole</type>
				<notations />
			</note>
		</measure>
		<measure number="10">
			<note>
				<pitch>
					<step>E</step>
					<octave>3</octave>
				</pitch>
				<duration>24</duration>
				<type>half</type>
				<notations />
			</note>
			<note>
				<chord />
				<pitch>
					<step>G</step>
					<octave>3</octave>
				</pitch>
				<duration>24</duration>
				<type>half</type>
				<notations />
			</note>
			<note>
				<chord />
				<pitch>
					<step>C</step>
					<octave>4</octave>
				</pitch>
				<duration>24</duration>
				<type>half</type>
				<notations />
			</note>
			<note>
				<pitch>
					<step>D</step>
					<octave>3</octave>
				</pitch>
				<duration>24</duration>
				<tie type="start" />
				<type>half</type>
				<notations>
					<tied type="start" />
				</notations>
			</note>
			<note>
				<chord />
				<pitch>
					<step>F</step>
					<octave>3</octave>
				</pitch>
				<duration>24</duration>
				<tie type="start" />
				<type>half</type>
				<notations>
					<tied type="start" />
				</notations>
			</note>
			<note>
				<chord />
				<pitch>
					<step>A</step>
					<octave>3</octave>
				</pitch>
				<duration>24</duration>
				<tie type="start" />
				<type>half</type>
				<notations>
					<tied type="start" />
				</notations>
			</note>
		</measure>
		<measure number="11">
			<note>
				<pitch>
					<step>D</step>
					<octave>3</octave>
				</pitch>
				<duration>48</duration>
				<tie type="stop" />
				<type>whole</type>
				<notations>
					<tied type="stop" />
				</notations>
			</note>
			<note>
				<chord />
				<pitch>
					<step>F</step>
					<octave>3</octave>
				</pitch>
				<duration>48</duration>
				<tie type="stop" />
				<type>whole</type>
				<notations>
					<tied type="stop" />
				</notations>
			</note>
			<note>
				<chord />
				<pitch>
					<step>A</step>
					<octave>3</octave>
				</pitch>
				<duration>48</duration>
				<tie type="stop" />
				<type>whole</type>
				<notations>
					<tied type="stop" />
				</notations>
			</note>
		</measure>
		<measure number="12">
			<note>
				<pitch>
					<step>G</step>
					<octave>3</octave>
				</pitch>
				<duration>48</duration>
				<type>whole</type>
				<notations />
			</note>
			<note>
				<chord />
				<pitch>
					<step>B</step>
					<octave>3</octave>
				</pitch>
				<duration>48</duration>
				<type>whole</type>
				<notations />
			</note>
			<note>
				<chord />
				<pitch>
					<step>D</step>
					<octave>4</octave>
				</pitch>
				<duration>48</duration>
				<type>whole</type>
				<notations />
			</note>
		</measure>
		<measure number="13">
			<note>
				<pitch>
					<step>G</step>
					<octave>3</octave>
				</pitch>
				<duration>24</duration>
				<type>half</type>
				<notations />
			</note>
			<note>
				<chord />
				<pitch>
					<step>B</step>
					<octave>3</octave>
				</pitch>
				<duration>24</duration>
				<type>half</type>
				<notations />
			</note>
			<note>
				<chord />
				<pitch>
					<step>D</step>
					<octave>4</octave>
				</pitch>
				<duration>24</duration>
				<type>half</type>
				<notations />
			</note>
			<note>
				<pitch>
					<step>E</step>
					<octave>3</octave>
				</pitch>
				<duration>24</duration>
				<type>half</type>
				<notations />
			</note>
			<note>
				<chord />
				<pitch>
					<step>G</step>
					<octave>3</octave>
				</pitch>
				<duration>24</duration>
				<type>half</type>
				<notations />
			</note>
			<note>
				<chord />
				<pitch>
					<step>C</step>
					<octave>4</octave>
				</pitch>
				<duration>24</duration>
				<type>half</type>
				<notations />
			</note>
		</measure>
		<measure number="14">
			<note>
				<pitch>
					<step>E</step>
					<octave>3</octave>
				</pitch>
				<duration>12</duration>
				<type>quarter</type>
				<notations />
			</note>
			<note>
				<chord />
				<pitch>
					<step>G</step>
					<octave>3</octave>
				</pitch>
				<duration>12</duration>
				<type>quarter</type>
				<notations />
			</note>
			<note>
				<chord />
				<pitch>
					<step>C</step>
					<octave>4</octave>
				</pitch>
				<duration>12</duration>
				<type>quarter</type>
				<notations />
			</note>
			<note>
				<pitch>
					<step>D</step>
					<octave>3</octave>
				</pitch>
				<duration>36</duration>
				<type>half</type>
				<dot />
				<notations />
			</note>
			<note>
				<chord />
				<pitch>
					<step>G</step>
					<octave>3</octave>
				</pitch>
				<duration>36</duration>
				<type>half</type>
				<dot />
				<notations />
			</note>
			<note>
				<chord />
				<pitch>
					<step>B</step>
					<octave>3</octave>
				</pitch>
				<duration>36</duration>
				<type>half</type>
				<dot />
				<notations />
			</note>
		</measure>
		<measure number="15">
			<note>
				<pitch>
					<step>E</step>
					<octave>3</octave>
				</pitch>
				<duration>12</duration>
				<type>quarter</type>
				<notations />
			</note>
			<note>
				<chord />
				<pitch>
					<step>G</step>
					<octave>3</octave>
				</pitch>
				<duration>12</duration>
				<type>quarter</type>
				<notations />
			</note>
			<note>
				<chord />
				<pitch>
					<step>C</step>
					<octave>4</octave>
				</pitch>
				<duration>12</duration>
				<type>quarter</type>
				<notations />
			</note>
			<note>
				<rest />
				<duration>12</duration>
				<type>quarter</type>
				<notations />
			</note>
			<note>
				<rest />
				<duration>24</duration>
				<type>half</type>
				<notations />
			</note>
		</measure>
		<measure number="16">
			<note>
				<rest />
				<duration>48</duration>
				<type>whole</type>
				<notations />
			</note>
		</measure>
		<measure number="17">
			<note>
				<pitch>
					<step>C</step>
					<octave>3</octave>
				</pitch>
				<duration>48</duration>
				<type>whole</type>
				<notations />
			</note>
			<note>
				<chord />
				<pitch>
					<step>E</step>
					<octave>3</octave>
				</pitch>
				<duration>48</duration>
				<type>whole</type>
				<notations />
			</note>
			<note>
				<chord />
				<pitch>
					<step>G</step>
					<octave>3</octave>
				</pitch>
				<duration>48</duration>
				<type>whole</type>
				<notations />
			</note>
		</measure>
		<measure number="18">
			<note>
				<pitch>
					<step>C</step>
					<octave>3</octave>
				</pitch>
				<duration>48</duration>
				<type>whole</type>
				<notations />
			</note>
			<note>
				<chord />
				<pitch>
					<step>E</step>
					<octave>3</octave>
				</pitch>
				<duration>48</duration>
				<type>whole</type>
				<notations />
			</note>
			<note>
				<chord />
				<pitch>
					<step>G</step>
					<octave>3</octave>
				</pitch>
				<duration>48</duration>
				<type>whole</type>
				<notations />
			</note>
		</measure>
		<measure number="19">
			<note>
				<pitch>
					<step>D</step>
					<octave>3</octave>
				</pitch>
				<duration>48</duration>
				<type>whole</type>
				<notations />
			</note>
			<note>
				<chord />
				<pitch>
					<step>F</step>
					<octave>3</octave>
				</pitch>
				<duration>48</duration>
				<type>whole</type>
				<notations />
			</note>
			<note>
				<chord />
				<pitch>
					<step>A</step>
					<octave>3</octave>
				</pitch>
				<duration>48</duration>
				<type>whole</type>
				<notations />
			</note>
			<note>
				<chord />
				<pitch>
					<step>C</step>
					<octave>4</octave>
				</pitch>
				<duration>48</duration>
				<type>whole</type>
				<notations />
			</note>
		</measure>
		<measure number="20">
			<note>
				<pitch>
					<step>D</step>
					<octave>3</octave>
				</pitch>
				<duration>48</duration>
				<type>whole</type>
				<notations />
			</note>
			<note>
				<chord />
				<pitch>
					<step>F</step>
					<octave>3</octave>
				</pitch>
				<duration>48</duration>
				<type>whole</type>
				<notations />
			</note>
			<note>
				<chord />
				<pitch>
					<step>A</step>
					<octave>3</octave>
				</pitch>
				<duration>48</duration>
				<type>whole</type>
				<notations />
			</note>
			<note>
				<chord />
				<pitch>
					<step>C</step>
					<octave>4</octave>
				</pitch>
				<duration>48</duration>
				<type>whole</type>
				<notations />
			</note>
		</measure>
		<measure number="21">
			<note>
				<pitch>
					<step>G</step>
					<octave>2</octave>
				</pitch>
				<duration>48</duration>
				<type>whole</type>
				<notations />
			</note>
			<note>
				<chord />
				<pitch>
					<step>B</step>
					<octave>2</octave>
				</pitch>
				<duration>48</duration>
				<type>whole</type>
				<notations />
			</note>
			<note>
				<chord />
				<pitch>
					<step>D</step>
					<octave>3</octave>
				</pitch>
				<duration>48</duration>
				<type>whole</type>
				<notations />
			</note>
			<note>
				<chord />
				<pitch>
					<step>F</step>
					<octave>3</octave>
				</pitch>
				<duration>48</duration>
				<type>whole</type>
				<notations />
			</note>
		</measure>
		<measure number="22">
			<note>
				<pitch>
					<step>G</step>
					<octave>2</octave>
				</pitch>
				<duration>48</duration>
				<type>whole</type>
				<notations />
			</note>
			<note>
				<chord />
				<pitch>
					<step>B</step>
					<octave>2</octave>
				</pitch>
				<duration>48</duration>
				<type>whole</type>
				<notations />
			</note>
			<note>
				<chord />
				<pitch>
					<step>D</step>
					<octave>3</octave>
				</pitch>
				<duration>48</duration>
				<type>whole</type>
				<notations />
			</note>
			<note>
				<chord />
				<pitch>
					<step>F</step>
					<octave>3</octave>
				</pitch>
				<duration>48</duration>
				<type>whole</type>
				<notations />
			</note>
		</measure>
		<measure number="23">
			<note>
				<pitch>
					<step>C</step>
					<octave>3</octave>
				</pitch>
				<duration>48</duration>
				<type>whole</type>
				<notations />
			</note>
			<note>
				<chord />
				<pitch>
					<step>E</step>
					<octave>3</octave>
				</pitch>
				<duration>48</duration>
				<type>whole</type>
				<notations />
			</note>
			<note>
				<chord />
				<pitch>
					<step>G</step>
					<octave>3</octave>
				</pitch>
				<duration>48</duration>
				<type>whole</type>
				<notations />
			</note>
		</measure>
		<measure number="24">
			<note>
				<pitch>
					<step>C</step>
					<octave>3</octave>
				</pitch>
				<duration>48</duration>
				<type>whole</type>
				<notations />
			</note>
			<note>
				<chord />
				<pitch>
					<step>E</step>
					<octave>3</octave>
				</pitch>
				<duration>48</duration>
				<type>whole</type>
				<notations />
			</note>
			<note>
				<chord />
				<pitch>
					<step>G</step>
					<octave>3</octave>
				</pitch>
				<duration>48</duration>
				<type>whole</type>
				<notations />
			</note>
		</measure>
		<measure number="25">
			<note>
				<rest />
				<duration>48</duration>
				<type>whole</type>
				<notations />
			</note>
		</measure>
	</part>
</score-partwise>
